<mxfile host="app.diagrams.net" modified="2022-04-25T09:43:25.914Z" agent="5.0 (iPad; CPU OS 14_8 like Mac OS X) AppleWebKit/605.1.15 (KHTML, like Gecko) CriOS/100.0.4896.85 Mobile/15E148 Safari/604.1" etag="vFK5JBJ6TnqUUf57MYoa" version="17.4.6" type="github">
  <diagram name="Page-1" id="e7e014a7-5840-1c2e-5031-d8a46d1fe8dd">
    <mxGraphModel dx="646" dy="573" grid="1" gridSize="10" guides="1" tooltips="1" connect="1" arrows="1" fold="1" page="1" pageScale="1" pageWidth="1169" pageHeight="826" background="none" math="0" shadow="0">
      <root>
        <mxCell id="0" />
        <mxCell id="1" parent="0" />
        <mxCell id="4muAvF1nPm3cvsm7npai-42" value="Actor" style="shape=umlActor;verticalLabelPosition=bottom;verticalAlign=top;html=1;outlineConnect=0;" vertex="1" parent="1">
          <mxGeometry x="80" y="390" width="30" height="60" as="geometry" />
        </mxCell>
        <mxCell id="4muAvF1nPm3cvsm7npai-43" value="" style="rounded=1;whiteSpace=wrap;html=1;fillColor=#e1d5e7;strokeColor=#9673a6;arcSize=43;" vertex="1" parent="1">
          <mxGeometry x="200" y="240" width="240" height="360" as="geometry" />
        </mxCell>
        <mxCell id="4muAvF1nPm3cvsm7npai-44" value="Authentication&amp;nbsp;" style="text;html=1;fillColor=#bac8d3;align=center;verticalAlign=middle;whiteSpace=wrap;rounded=1;glass=1;shadow=1;strokeColor=#23445d;sketch=1;" vertex="1" parent="1">
          <mxGeometry x="230" y="330" width="180" height="30" as="geometry" />
        </mxCell>
        <mxCell id="4muAvF1nPm3cvsm7npai-45" value="Action (withdraw -see balance etc)" style="text;html=1;strokeColor=#56517e;fillColor=#d0cee2;align=center;verticalAlign=middle;whiteSpace=wrap;rounded=1;shadow=1;sketch=1;glass=1;" vertex="1" parent="1">
          <mxGeometry x="230" y="413" width="180" height="30" as="geometry" />
        </mxCell>
        <mxCell id="4muAvF1nPm3cvsm7npai-48" value="Act on user input" style="text;html=1;strokeColor=#56517e;fillColor=#d0cee2;align=center;verticalAlign=middle;whiteSpace=wrap;rounded=1;glass=1;sketch=1;shadow=1;" vertex="1" parent="1">
          <mxGeometry x="290" y="490" width="60" height="30" as="geometry" />
        </mxCell>
        <mxCell id="4muAvF1nPm3cvsm7npai-50" value="" style="shape=flexArrow;endArrow=classic;html=1;rounded=0;endWidth=26.537396121883656;endSize=10.600000000000001;width=15.789473684210527;" edge="1" parent="1">
          <mxGeometry width="50" height="50" relative="1" as="geometry">
            <mxPoint x="130" y="419.47" as="sourcePoint" />
            <mxPoint x="190" y="419.47" as="targetPoint" />
          </mxGeometry>
        </mxCell>
      </root>
    </mxGraphModel>
  </diagram>
</mxfile>
